<?xml version="1.0" standalone="no"?>
<!DOCTYPE svg PUBLIC "-//W3C//DTD SVG 20010904//EN"
 "http://www.w3.org/TR/2001/REC-SVG-20010904/DTD/svg10.dtd">
<svg version="1.0" xmlns="http://www.w3.org/2000/svg"
 width="260.000000pt" height="260.000000pt" viewBox="0 0 260.000000 260.000000"
 preserveAspectRatio="xMidYMid meet">
<metadata>
Created by potrace 1.14, written by Peter Selinger 2001-2017
</metadata>
<g transform="translate(0.000000,260.000000) scale(0.100000,-0.100000)"
fill="#000000" stroke="none">
<path d="M0 1300 l0 -1300 1300 0 1300 0 0 1300 0 1300 -1300 0 -1300 0 0
-1300z m1262 579 c176 -37 285 -165 296 -348 8 -147 -42 -262 -143 -329 -27
-19 -51 -38 -53 -43 -2 -5 50 -106 115 -226 65 -119 120 -220 121 -225 2 -4
-59 -8 -135 -8 l-138 0 -110 208 -110 207 -92 3 -93 3 0 -211 0 -210 -130 0
-130 0 0 595 0 595 275 0 c162 0 296 -5 327 -11z m709 -957 c31 -28 42 -47 46
-78 11 -85 -50 -154 -137 -154 -87 0 -148 69 -137 154 4 31 15 50 46 78 36 34
46 38 91 38 45 0 55 -4 91 -38z"/>
<path d="M920 1503 l0 -186 126 6 c150 7 198 25 232 86 26 45 29 124 8 174
-32 77 -107 107 -271 107 l-95 0 0 -187z"/>
</g>
</svg>
